{"title":"The Name of the Rose 1986 DVDrip English Klam","uid":6389623,"size":1893207232,"categoryP":"video","categoryS":"movies","magnet":"?xt=urn:btih:f88f85d564ac612d24e484ec7f2234b49ab81a06&amp;dn=The+Name+of+the+Rose+1986+DVDrip+English+Klam&amp;tr=udp%3A%2F%2Ftracker.openbittorrent.com%3A80&amp;tr=udp%3A%2F%2Fopen.demonii.com%3A1337&amp;tr=udp%3A%2F%2Ftracker.coppersurfer.tk%3A6969&amp;tr=udp%3A%2F%2Fexodus.desync.com%3A6969","seeders":0,"leechers":1,"uploader":"Klambake","files":5,"time":1305313343,"description":"With: Sean Connery, Christian Slater and F. Murray Abraham\n\nNa een mysterieuze dood in een klooster, denken de monniken dat dit het begin van de nieuwe apocalypse is. Het is ook uiterst slecht getimed aangezien ze binnenkort bezoek krijgen van belangrijke geestelijke leiders. Ze vragen daarom hulp van de monnik William of Baskerville, ze willen dat hij uitvindt wat er hier gaande is. Samen met zijn leerling gaat hij op onderzoek uit, maar hij moet ook vechten tegen de klok aangezien ze belangrijk bezoek verwachten.\n\n1327: after a mysterious death in a Benedictine Abbey, the monks are convinced that the apocalypse is coming. With the Abbey to play host to a council on the Franciscan's Order's belief that the Church should rid itself of wealth, William of Baskerville, a respected Franciscan monk, is asked to assist in determining the cause of the untimely death. Alas, more deaths occur as the investigation draws closer to uncovering the secret the Abbey wants hidden, and there is finally no stopping the Holy Inquisition from taking an active hand in the process. William and his young novice must race against time to prove the innocence of the unjustly accused and avoid the wrath of Holy Inquisitor Bernardo Gui. \n\nGeneral:\n\nComplete name                    : The Name Of The Rose\\The Name Of The Rose.avi\nFormat                           : AVI\nFormat/Info                      : Audio Video Interleave\nFile size                        : 1.76 GiB\nDuration                         : 2h 6mn\nOverall bit rate                 : 2 001 Kbps\n\nVideo:\n\nFormat                           : MPEG-4 Visual\nFormat profile                   : Simple@L3\nFormat settings, BVOP            : No\nFormat settings, QPel            : No\nFormat settings, GMC             : No warppoints\nFormat settings, Matrix          : Default (H.263)\nCodec ID                         : XVID\nCodec ID/Hint                    : XviD\nDuration                         : 2h 6mn\nBit rate                         : 1 607 Kbps\nWidth                            : 652 pixels\nHeight                           : 352 pixels\nDisplay aspect ratio             : 1.852\nFrame rate                       : 25.000 fps\nColor space                      : YUV\nChroma subsampling               : 4:2:0\nBit depth                        : 8 bits\nScan type                        : Progressive\nBits/(Pixel*Frame)               : 0.280\nStream size                      : 1.41 GiB (80%)\nWriting library                  : XviD 1.1.2 (UTC 2006-11-01)\n\nAudio:\n\nFormat                           : AC-3\nFormat/Info                      : Audio Coding 3\nMode extension                   : CM (complete main)\nCodec ID                         : 2000\nDuration                         : 2h 6mn\nBit rate mode                    : Constant\nBit rate                         : 384 Kbps\nChannel(s)                       : 6 channels\nChannel positions                : Front: L C R, Side: L R, LFE\nSampling rate                    : 48.0 KHz\nBit depth                        : 16 bits\nStream size                      : 346 MiB (19%)\nAlignment                        : Aligned on interleaves\nInterleave, duration             : 32 ms (0.80 video frame)\nInterleave, preload duration     : 64 ms\n\n\n","torrent":{"xt":"urn:btih:f88f85d564ac612d24e484ec7f2234b49ab81a06","amp;dn":"The+Name+of+the+Rose+1986+DVDrip+English+Klam","amp;tr":["udp%3A%2F%2Ftracker.openbittorrent.com%3A80","udp%3A%2F%2Fopen.demonii.com%3A1337","udp%3A%2F%2Ftracker.coppersurfer.tk%3A6969","udp%3A%2F%2Fexodus.desync.com%3A6969"],"infoHash":"f88f85d564ac612d24e484ec7f2234b49ab81a06","infoHashBuffer":{"type":"Buffer","data":[248,143,133,213,100,172,97,45,36,228,132,236,127,34,52,180,154,184,26,6]},"announce":[],"urlList":[]}}